<svg width="217.108" height="63.5" viewBox="0 0 217.108 63.5" xmlns="http://www.w3.org/2000/svg"><g id="svgGroup" stroke-linecap="round" fill-rule="evenodd" font-size="9pt" stroke="#db2112" stroke-width="0.25mm" fill="#db2112" style="stroke:#db2112;stroke-width:0.25mm;fill:#db2112"><path d="M 2.643 63.115 A 6.492 6.492 0 0 0 4.9 63.5 A 10.944 10.944 0 0 0 7.266 63.236 A 13.449 13.449 0 0 0 10 62.3 A 34.071 34.071 0 0 0 12.16 61.212 A 26.791 26.791 0 0 0 14.6 59.7 A 15.955 15.955 0 0 0 16.153 58.347 A 12.582 12.582 0 0 0 18.9 54.35 A 15.576 15.576 0 0 0 19.811 51.432 A 19.126 19.126 0 0 0 20.2 47.5 Q 20.2 46.7 20.15 45.9 Q 20.1 45.1 20 44.3 A 5.495 5.495 0 0 1 20.093 44.294 Q 21.423 44.222 22.1 44.85 A 7.671 7.671 0 0 0 22.274 45.007 Q 22.839 45.5 23.1 45.5 A 0.421 0.421 0 0 0 23.127 45.499 Q 23.4 45.482 23.4 45.1 A 0.882 0.882 0 0 0 23.256 44.623 Q 23.033 44.27 22.466 43.962 A 5.381 5.381 0 0 0 21.9 43.7 Q 20.769 43.248 20.15 43.136 A 2.017 2.017 0 0 0 19.8 43.1 Q 19.4 40.6 18.55 38.25 Q 17.7 35.9 16.6 33.6 A 34.103 34.103 0 0 0 16.622 33.571 Q 17.069 32.973 17.838 31.894 A 245.252 245.252 0 0 0 18.4 31.1 Q 19.265 29.875 19.506 29.065 A 1.999 1.999 0 0 0 19.6 28.5 Q 19.6 27.9 18.9 27.9 A 0.913 0.913 0 0 0 18.782 27.909 Q 18.458 27.951 17.817 28.205 A 15.466 15.466 0 0 0 17.35 28.4 Q 16.2 28.9 15.2 29.55 Q 14.2 30.2 14.2 30.8 A 1.352 1.352 0 0 0 14.225 31.045 Q 14.312 31.512 14.7 32.25 A 34.363 34.363 0 0 1 14.918 32.671 Q 15.14 33.106 15.281 33.422 A 7.354 7.354 0 0 1 15.4 33.7 Q 13.8 36.1 11.9 38.2 Q 10 40.3 7.7 42.2 A 2.601 2.601 0 0 1 7.571 42.319 Q 7.225 42.621 6.465 43.13 A 36.668 36.668 0 0 1 5.9 43.5 A 15.813 15.813 0 0 1 5.701 43.626 Q 4.457 44.4 3.9 44.4 A 0.442 0.442 0 0 1 3.789 44.387 Q 3.653 44.352 3.615 44.219 A 0.432 0.432 0 0 1 3.6 44.1 Q 3.6 43.694 4.392 42.198 A 39.048 39.048 0 0 1 4.8 41.45 A 351.994 351.994 0 0 0 5.589 40.028 Q 6.003 39.278 6.456 38.45 A 647.812 647.812 0 0 0 7.6 36.35 A 77.479 77.479 0 0 0 8.398 34.839 A 67.01 67.01 0 0 0 10.4 30.6 A 25.806 25.806 0 0 0 10.621 30.069 Q 11.261 28.477 11.483 27.27 A 6.524 6.524 0 0 0 11.6 26.1 A 4.562 4.562 0 0 0 11.542 25.359 A 3.394 3.394 0 0 0 10.95 23.9 Q 10.501 23.278 9.693 23.086 A 3.428 3.428 0 0 0 8.9 23 Q 8.4 23 7.3 23.4 A 12.469 12.469 0 0 0 6.697 23.637 A 10.617 10.617 0 0 0 5.3 24.35 A 4.046 4.046 0 0 0 5.183 24.424 Q 4.4 24.94 4.4 25.5 A 0.253 0.253 0 0 0 4.4 25.515 Q 4.409 25.662 4.594 25.692 A 0.666 0.666 0 0 0 4.7 25.7 Q 5.013 25.7 5.63 25.273 A 8.264 8.264 0 0 0 6 25 A 6.246 6.246 0 0 1 6.241 24.821 Q 6.701 24.498 7.074 24.375 A 1.369 1.369 0 0 1 7.5 24.3 Q 8 24.3 8.1 24.8 A 6.465 6.465 0 0 1 8.114 24.87 Q 8.2 25.328 8.2 25.7 A 8.227 8.227 0 0 1 8.193 26.041 Q 8.154 26.971 7.907 27.981 A 13.991 13.991 0 0 1 7.3 29.85 A 632.713 632.713 0 0 0 7.242 29.995 Q 6.377 32.158 5.7 33.9 Q 4.8 36.2 3.85 38.5 Q 2.9 40.8 2.1 43.1 A 10.025 10.025 0 0 0 1.847 43.836 Q 1.6 44.667 1.6 45.3 Q 1.6 46.5 2.6 46.5 A 2.768 2.768 0 0 0 2.85 46.489 Q 4.074 46.378 5.75 45.2 A 109.714 109.714 0 0 0 6.571 44.618 Q 7.834 43.713 8.6 43.1 Q 12.7 39.3 15.8 34.7 Q 16.6 36.8 17.1 38.95 Q 17.6 41.1 17.7 43.4 A 14.16 14.16 0 0 0 16.773 43.674 Q 14.095 44.564 11.2 46.65 Q 9.288 48.028 7.66 49.296 A 81.956 81.956 0 0 0 5.3 51.2 Q 4.238 52.013 3.136 53.216 A 26.866 26.866 0 0 0 1.8 54.8 A 9.628 9.628 0 0 0 0.739 56.466 A 6.79 6.79 0 0 0 0 59.5 A 4.971 4.971 0 0 0 0.067 60.335 A 3.113 3.113 0 0 0 1.5 62.55 A 5.999 5.999 0 0 0 2.643 63.115 Z M 5.1 62.6 A 6.807 6.807 0 0 0 8.558 61.642 A 8.498 8.498 0 0 0 9.1 61.3 A 25.508 25.508 0 0 0 11.079 59.806 A 20.334 20.334 0 0 0 12.4 58.6 A 20.123 20.123 0 0 0 17.7 44.7 Q 15.98 45.273 13.438 46.669 A 53.168 53.168 0 0 0 13.2 46.8 Q 10.5 48.3 7.85 50.4 A 26.508 26.508 0 0 0 5.154 52.842 A 21.379 21.379 0 0 0 3.45 54.85 A 10.636 10.636 0 0 0 2.436 56.484 Q 1.941 57.485 1.779 58.457 A 5.722 5.722 0 0 0 1.7 59.4 Q 1.7 60.9 2.7 61.75 Q 3.7 62.6 5.1 62.6 Z M 16.1 32.6 A 20.274 20.274 0 0 0 16.937 31.123 A 22.361 22.361 0 0 0 17.05 30.9 A 20.771 20.771 0 0 1 17.876 29.402 A 18.878 18.878 0 0 1 18 29.2 A 6.784 6.784 0 0 0 16.842 29.76 A 6.093 6.093 0 0 0 16.55 29.95 Q 15.9 30.4 15.1 30.9 A 3.843 3.843 0 0 1 15.412 31.25 Q 15.566 31.447 15.671 31.644 A 2.284 2.284 0 0 1 15.7 31.7 Q 15.9 32.1 16.1 32.6 Z" id="0" vector-effect="non-scaling-stroke"/><path d="M 29.8 44.5 A 15.949 15.949 0 0 0 36.112 43.167 A 19.492 19.492 0 0 0 37.7 42.4 Q 41.6 40.3 44.2 36.75 A 13.475 13.475 0 0 0 46.32 32.522 A 12.257 12.257 0 0 0 46.8 29.1 A 10.462 10.462 0 0 0 46.575 26.869 Q 46.235 25.311 45.382 24.139 A 6.555 6.555 0 0 0 45.2 23.9 A 5.086 5.086 0 0 0 42.473 22.164 Q 41.621 21.933 40.596 21.904 A 10.515 10.515 0 0 0 40.3 21.9 Q 36.7 21.9 33.2 24.1 Q 29.7 26.3 27.3 29.7 A 15.977 15.977 0 0 0 25.446 33.095 A 12.784 12.784 0 0 0 24.6 36.7 A 14.814 14.814 0 0 1 25.488 34.967 Q 26.718 32.881 29 30.15 Q 31.862 26.725 36.829 24.014 A 41.626 41.626 0 0 1 38.4 23.2 Q 38.481 23.119 38.694 23.104 A 1.484 1.484 0 0 1 38.8 23.1 A 0.646 0.646 0 0 1 39.263 23.299 Q 39.455 23.487 39.6 23.85 Q 39.843 24.457 39.889 24.966 A 2.585 2.585 0 0 1 39.9 25.2 Q 39.9 25.297 39.711 25.726 A 11.617 11.617 0 0 1 39.7 25.75 A 2.068 2.068 0 0 1 39.551 26.03 Q 39.397 26.269 39.2 26.4 Q 38.954 26.564 38.371 26.998 A 83.637 83.637 0 0 0 38.1 27.2 Q 37.3 27.8 36.55 28.35 Q 35.813 28.89 35.607 28.9 A 0.157 0.157 0 0 1 35.6 28.9 A 0.666 0.666 0 0 1 35.494 28.892 Q 35.309 28.862 35.3 28.715 A 0.253 0.253 0 0 1 35.3 28.7 A 1.112 1.112 0 0 1 35.358 28.359 Q 35.405 28.211 35.492 28.053 A 2.707 2.707 0 0 1 35.65 27.8 Q 35.998 27.303 36.099 27.201 A 0.403 0.403 0 0 1 36.1 27.2 A 24.482 24.482 0 0 0 34.076 28.501 Q 33.055 29.226 31.98 30.122 A 41.567 41.567 0 0 0 31.65 30.4 Q 29.3 32.4 27.65 34.85 A 11.17 11.17 0 0 0 26.202 37.848 A 9.903 9.903 0 0 0 25.8 40 Q 26.09 40.193 26.892 40.526 A 23.134 23.134 0 0 0 26.95 40.55 A 7.051 7.051 0 0 1 27.228 40.671 Q 27.8 40.936 27.8 41.1 A 0.315 0.315 0 0 1 27.772 41.238 Q 27.708 41.371 27.497 41.395 A 0.875 0.875 0 0 1 27.4 41.4 Q 27 41.4 26.6 41.3 L 25.8 41.1 Q 25.8 43.1 26.8 43.8 A 3.269 3.269 0 0 0 27.685 44.225 Q 28.519 44.491 29.722 44.5 A 11.257 11.257 0 0 0 29.8 44.5 Z M 26.294 45.073 A 9.721 9.721 0 0 0 29.8 45.7 A 15.326 15.326 0 0 0 32.774 45.401 A 19.327 19.327 0 0 0 36.25 44.35 Q 39.6 43 42.45 40.6 A 22.888 22.888 0 0 0 42.649 40.43 A 20.267 20.267 0 0 0 47.05 35.15 A 14.803 14.803 0 0 0 47.262 34.768 A 12.488 12.488 0 0 0 48.8 28.8 Q 48.8 25 46.4 22.7 A 7.952 7.952 0 0 0 43.056 20.78 A 10.249 10.249 0 0 0 40.2 20.4 Q 36.3 20.4 32.45 22.65 Q 28.6 24.9 26.1 27.8 A 16.876 16.876 0 0 0 24.723 29.753 A 23.049 23.049 0 0 0 23.55 31.95 A 13.24 13.24 0 0 0 22.761 34.055 A 9.566 9.566 0 0 0 22.4 36.6 A 6.071 6.071 0 0 0 22.454 37.42 A 4.376 4.376 0 0 0 23.7 40 A 0.857 0.857 0 0 0 23.685 40.052 Q 23.62 40.296 23.605 40.835 A 12.892 12.892 0 0 0 23.6 41.2 A 5.504 5.504 0 0 0 23.722 42.397 A 3.272 3.272 0 0 0 25.55 44.75 A 9.25 9.25 0 0 0 26.294 45.073 Z" id="1" vector-effect="non-scaling-stroke"/><path d="M 63.3 34 L 63.3 33.8 Q 63.3 33.4 62.8 33.4 A 1.013 1.013 0 0 0 62.398 33.49 Q 62.092 33.622 61.753 33.948 A 3.915 3.915 0 0 0 61.7 34 Q 61.088 34.689 60.182 35.759 A 204.293 204.293 0 0 0 59.6 36.45 Q 58.3 38 56.95 39.7 Q 55.6 41.4 54.6 42.75 Q 53.6 44.1 53.3 44.5 Q 53.104 44.893 52.714 45.719 A 173.223 173.223 0 0 0 52.7 45.75 A 1.884 1.884 0 0 1 52.443 46.161 A 1.176 1.176 0 0 1 51.5 46.6 A 1.551 1.551 0 0 1 50.355 46.109 A 2.071 2.071 0 0 1 50.3 46.05 Q 49.8 45.5 49.8 44.7 A 1.984 1.984 0 0 1 49.85 44.246 A 1.45 1.45 0 0 1 50.1 43.7 A 18.765 18.765 0 0 0 50.739 42.039 Q 51.037 41.151 51.3 40.124 A 35.507 35.507 0 0 0 51.5 39.3 Q 52.1 36.7 52.4 34 A 58.929 58.929 0 0 0 52.583 32.088 Q 52.7 30.588 52.7 29.4 Q 52.7 27.5 52.35 25.3 Q 52 23.1 50.3 21.8 A 0.315 0.315 0 0 1 50.162 21.772 Q 50.029 21.708 50.005 21.497 A 0.875 0.875 0 0 1 50 21.4 Q 50 21.2 50.2 21.2 A 0.739 0.739 0 0 1 50.463 21.245 A 0.664 0.664 0 0 1 50.7 21.4 A 7.306 7.306 0 0 1 53.584 24.713 A 9.598 9.598 0 0 1 53.95 25.65 Q 54.9 28.5 54.9 31.8 Q 54.9 34.2 54.5 36.65 Q 54.1 39.1 53.5 41.3 A 22.903 22.903 0 0 0 55.267 39.753 Q 56.775 38.3 58.4 36.3 A 177.714 177.714 0 0 0 60.541 33.615 Q 61.509 32.376 62.352 31.243 A 104.098 104.098 0 0 0 62.9 30.5 Q 63.5 29.7 64.3 28.95 Q 65.1 28.2 66.2 28.2 Q 66.9 28.2 66.9 29.1 A 0.666 0.666 0 0 1 66.897 29.159 Q 66.888 29.262 66.85 29.45 Q 66.8 29.7 66.7 30 A 79.051 79.051 0 0 0 66.596 30.478 Q 66.43 31.245 66.14 32.638 A 939.172 939.172 0 0 0 65.95 33.55 Q 65.4 36.2 65.4 38.8 A 13.585 13.585 0 0 0 65.507 40.55 Q 65.626 41.464 65.877 42.246 A 7.823 7.823 0 0 0 66 42.6 A 2.967 2.967 0 0 0 66.43 43.391 Q 67.013 44.137 68.025 44.195 A 3.04 3.04 0 0 0 68.2 44.2 A 3.218 3.218 0 0 0 68.972 44.101 Q 69.325 44.014 69.7 43.85 A 3.264 3.264 0 0 0 70.304 43.51 A 2.381 2.381 0 0 0 70.9 42.9 A 0.155 0.155 0 0 0 70.985 42.877 Q 71.024 42.852 71.05 42.8 A 0.216 0.216 0 0 1 71.085 42.748 A 0.151 0.151 0 0 1 71.2 42.7 Q 71.4 42.7 71.4 42.9 Q 71.4 43.747 70.396 44.235 A 3.923 3.923 0 0 1 70 44.4 A 13.24 13.24 0 0 1 69.26 44.642 Q 68.539 44.852 68.024 44.891 A 2.97 2.97 0 0 1 67.8 44.9 Q 65.44 44.9 64.275 43.005 A 5.283 5.283 0 0 1 64.05 42.6 Q 62.9 40.3 62.9 37.5 Q 62.9 36.6 63 35.7 A 13.343 13.343 0 0 1 63.204 34.419 A 11.608 11.608 0 0 1 63.3 34 Z" id="2" vector-effect="non-scaling-stroke"/><path d="M 77.8 44.5 A 15.949 15.949 0 0 0 84.112 43.167 A 19.492 19.492 0 0 0 85.7 42.4 Q 89.6 40.3 92.2 36.75 A 13.475 13.475 0 0 0 94.32 32.522 A 12.257 12.257 0 0 0 94.8 29.1 A 10.462 10.462 0 0 0 94.575 26.869 Q 94.235 25.311 93.382 24.139 A 6.555 6.555 0 0 0 93.2 23.9 A 5.086 5.086 0 0 0 90.473 22.164 Q 89.621 21.933 88.596 21.904 A 10.515 10.515 0 0 0 88.3 21.9 Q 84.7 21.9 81.2 24.1 Q 77.7 26.3 75.3 29.7 A 15.977 15.977 0 0 0 73.446 33.095 A 12.784 12.784 0 0 0 72.6 36.7 A 14.814 14.814 0 0 1 73.488 34.967 Q 74.718 32.881 77 30.15 Q 79.862 26.725 84.829 24.014 A 41.626 41.626 0 0 1 86.4 23.2 Q 86.481 23.119 86.694 23.104 A 1.484 1.484 0 0 1 86.8 23.1 A 0.646 0.646 0 0 1 87.263 23.299 Q 87.455 23.487 87.6 23.85 Q 87.843 24.457 87.889 24.966 A 2.585 2.585 0 0 1 87.9 25.2 Q 87.9 25.297 87.711 25.726 A 11.617 11.617 0 0 1 87.7 25.75 A 2.068 2.068 0 0 1 87.551 26.03 Q 87.397 26.269 87.2 26.4 Q 86.954 26.564 86.371 26.998 A 83.637 83.637 0 0 0 86.1 27.2 Q 85.3 27.8 84.55 28.35 Q 83.813 28.89 83.607 28.9 A 0.157 0.157 0 0 1 83.6 28.9 A 0.666 0.666 0 0 1 83.494 28.892 Q 83.309 28.862 83.3 28.715 A 0.253 0.253 0 0 1 83.3 28.7 A 1.112 1.112 0 0 1 83.358 28.359 Q 83.405 28.211 83.492 28.053 A 2.707 2.707 0 0 1 83.65 27.8 Q 83.998 27.303 84.099 27.201 A 0.403 0.403 0 0 1 84.1 27.2 A 24.482 24.482 0 0 0 82.076 28.501 Q 81.055 29.226 79.98 30.122 A 41.567 41.567 0 0 0 79.65 30.4 Q 77.3 32.4 75.65 34.85 A 11.17 11.17 0 0 0 74.202 37.848 A 9.903 9.903 0 0 0 73.8 40 Q 74.09 40.193 74.892 40.526 A 23.134 23.134 0 0 0 74.95 40.55 A 7.051 7.051 0 0 1 75.228 40.671 Q 75.8 40.936 75.8 41.1 A 0.315 0.315 0 0 1 75.772 41.238 Q 75.708 41.371 75.497 41.395 A 0.875 0.875 0 0 1 75.4 41.4 Q 75 41.4 74.6 41.3 L 73.8 41.1 Q 73.8 43.1 74.8 43.8 A 3.269 3.269 0 0 0 75.685 44.225 Q 76.519 44.491 77.722 44.5 A 11.257 11.257 0 0 0 77.8 44.5 Z M 74.294 45.073 A 9.721 9.721 0 0 0 77.8 45.7 A 15.326 15.326 0 0 0 80.774 45.401 A 19.327 19.327 0 0 0 84.25 44.35 Q 87.6 43 90.45 40.6 A 22.888 22.888 0 0 0 90.649 40.43 A 20.267 20.267 0 0 0 95.05 35.15 A 14.803 14.803 0 0 0 95.262 34.768 A 12.488 12.488 0 0 0 96.8 28.8 Q 96.8 25 94.4 22.7 A 7.952 7.952 0 0 0 91.056 20.78 A 10.249 10.249 0 0 0 88.2 20.4 Q 84.3 20.4 80.45 22.65 Q 76.6 24.9 74.1 27.8 A 16.876 16.876 0 0 0 72.723 29.753 A 23.049 23.049 0 0 0 71.55 31.95 A 13.24 13.24 0 0 0 70.761 34.055 A 9.566 9.566 0 0 0 70.4 36.6 A 6.071 6.071 0 0 0 70.454 37.42 A 4.376 4.376 0 0 0 71.7 40 A 0.857 0.857 0 0 0 71.685 40.052 Q 71.62 40.296 71.605 40.835 A 12.892 12.892 0 0 0 71.6 41.2 A 5.504 5.504 0 0 0 71.722 42.397 A 3.272 3.272 0 0 0 73.55 44.75 A 9.25 9.25 0 0 0 74.294 45.073 Z" id="3" vector-effect="non-scaling-stroke"/><path d="M 133.8 31.9 L 134.2 29.7 A 4.01 4.01 0 0 1 134.311 29.331 A 2.938 2.938 0 0 1 134.45 29 A 0.491 0.491 0 0 1 134.724 28.76 Q 134.877 28.7 135.1 28.7 A 1.364 1.364 0 0 1 135.67 28.83 Q 135.858 28.916 136.046 29.058 A 2.544 2.544 0 0 1 136.1 29.1 A 5.584 5.584 0 0 1 136.499 29.45 Q 136.731 29.675 136.9 29.9 Q 137.2 30.3 137.8 32.1 L 139.05 35.85 Q 139.54 37.32 139.888 38.137 A 8.5 8.5 0 0 0 140.1 38.6 A 21.786 21.786 0 0 0 140.384 39.211 Q 140.723 39.914 141.217 40.838 A 69.297 69.297 0 0 0 141.25 40.9 A 10.509 10.509 0 0 0 142.721 43.005 A 9.66 9.66 0 0 0 143.05 43.35 A 3.903 3.903 0 0 0 143.926 44.02 A 3.014 3.014 0 0 0 145.4 44.4 A 2.935 2.935 0 0 0 147.743 43.31 A 4.391 4.391 0 0 0 148.2 42.65 Q 149.2 40.9 149.6 38.7 A 34.913 34.913 0 0 0 149.811 37.413 Q 149.98 36.233 149.998 35.393 A 9.104 9.104 0 0 0 150 35.2 Q 150 33.8 149.45 31.7 Q 148.9 29.6 147.75 27.95 A 4.35 4.35 0 0 0 146.883 27.011 A 3.269 3.269 0 0 0 144.8 26.3 A 3.613 3.613 0 0 0 144.094 26.366 A 2.74 2.74 0 0 0 143.4 26.6 A 8.118 8.118 0 0 1 143.189 26.702 Q 142.856 26.857 142.684 26.891 A 0.443 0.443 0 0 1 142.6 26.9 Q 142.511 26.9 142.501 26.742 A 0.673 0.673 0 0 1 142.5 26.7 A 0.943 0.943 0 0 1 142.662 26.185 Q 142.858 25.881 143.289 25.591 A 3.92 3.92 0 0 1 143.35 25.55 A 6.55 6.55 0 0 1 144.669 24.9 A 7.925 7.925 0 0 1 145.3 24.7 A 15.772 15.772 0 0 1 145.813 24.569 Q 146.525 24.4 146.9 24.4 A 4.653 4.653 0 0 1 148.346 24.613 A 3.656 3.656 0 0 1 150.25 26.05 A 9.433 9.433 0 0 1 151.657 29.19 A 11.125 11.125 0 0 1 151.8 29.85 A 26.275 26.275 0 0 1 152.073 31.645 Q 152.2 32.744 152.2 33.7 L 152.2 35.1 Q 152.2 37.1 151.3 39.65 A 13.969 13.969 0 0 1 149.482 43.174 A 12.807 12.807 0 0 1 148.75 44.1 A 5.458 5.458 0 0 1 146.79 45.569 A 5.461 5.461 0 0 1 144.6 46 Q 142.5 46 140.9 44.5 A 20.499 20.499 0 0 1 139.095 42.586 A 17.099 17.099 0 0 1 138.2 41.4 A 45.25 45.25 0 0 1 137.49 40.17 Q 137.179 39.613 136.844 38.983 A 92.656 92.656 0 0 1 136.15 37.65 Q 135.27 35.927 134.946 34.469 A 8.189 8.189 0 0 1 134.8 33.6 Q 133.941 36.092 132.158 38.917 A 39.133 39.133 0 0 1 131.55 39.85 A 23.313 23.313 0 0 1 126.628 45.208 A 22.11 22.11 0 0 1 126.25 45.5 Q 123.2 47.8 119.7 47.8 Q 118.689 47.8 118.396 46.998 A 1.666 1.666 0 0 1 118.35 46.85 A 8.125 8.125 0 0 1 118.167 45.965 A 5.955 5.955 0 0 1 118.1 45.1 Q 118.1 42.2 119.1 39 Q 120.1 35.8 121.35 32.6 Q 122.6 29.4 123.4 26.7 A 40.221 40.221 0 0 1 123.742 25.498 Q 123.902 24.964 124.092 24.378 A 77.067 77.067 0 0 1 124.5 23.15 Q 124.959 21.805 125.117 20.739 A 7.116 7.116 0 0 0 125.2 19.7 A 2.073 2.073 0 0 0 125.194 19.543 Q 125.188 19.468 125.177 19.382 A 4.728 4.728 0 0 0 125.15 19.2 Q 125.106 18.939 124.873 18.905 A 0.512 0.512 0 0 0 124.8 18.9 A 1.185 1.185 0 0 0 124.008 19.209 Q 123.79 19.397 123.6 19.7 Q 123.1 20.5 122.4 20.5 A 1.246 1.246 0 0 1 122.23 20.489 Q 122.041 20.463 121.96 20.372 A 0.25 0.25 0 0 1 121.9 20.2 A 6.403 6.403 0 0 1 122.466 19.284 Q 122.876 18.724 123.45 18.15 A 4.191 4.191 0 0 1 124.207 17.542 A 2.801 2.801 0 0 1 125.7 17.1 A 2.207 2.207 0 0 1 126.31 17.179 A 1.494 1.494 0 0 1 127.25 17.95 Q 127.7 18.8 127.7 19.8 A 6.396 6.396 0 0 1 127.627 20.734 Q 127.562 21.178 127.437 21.661 A 10.733 10.733 0 0 1 127.4 21.8 Q 126.1 26.6 124.7 31.15 Q 123.3 35.7 122 40.5 A 18.086 18.086 0 0 0 121.736 41.566 Q 121.618 42.121 121.559 42.604 A 7.418 7.418 0 0 0 121.5 43.5 Q 121.5 44.2 121.8 44.8 A 1.026 1.026 0 0 0 122.541 45.365 A 1.71 1.71 0 0 0 122.9 45.4 A 2.252 2.252 0 0 0 123.495 45.316 A 3.035 3.035 0 0 0 123.95 45.15 A 26.484 26.484 0 0 1 124.618 44.857 A 22.269 22.269 0 0 1 125 44.7 A 8.569 8.569 0 0 0 126.336 43.713 Q 127.384 42.782 128.45 41.35 Q 130.2 39 131.7 36.4 Q 133.2 33.8 133.8 31.9 Z" id="5" vector-effect="non-scaling-stroke"/><path d="M 167.821 43.728 A 24.484 24.484 0 0 0 169.5 41.9 A 152.692 152.692 0 0 0 170.338 40.906 A 135.34 135.34 0 0 0 172.7 38 Q 173.544 36.931 174.229 35.957 A 32.04 32.04 0 0 0 175.2 34.5 A 3.273 3.273 0 0 0 175.288 34.309 Q 175.63 33.5 175 33.5 A 0.53 0.53 0 0 0 174.689 33.595 Q 174.513 33.718 174.4 34 A 53.275 53.275 0 0 1 173.755 35.034 Q 172.719 36.652 171.8 37.8 A 27.112 27.112 0 0 1 171.347 38.352 A 23.883 23.883 0 0 1 169.3 40.5 A 38.456 38.456 0 0 1 168.613 41.126 Q 168.055 41.623 167.542 42.035 A 19.346 19.346 0 0 1 166.6 42.75 A 8.187 8.187 0 0 1 166.553 42.783 Q 165.83 43.288 165.217 43.481 A 2.392 2.392 0 0 1 164.5 43.6 Q 163.572 43.6 162.973 42.523 A 4.941 4.941 0 0 1 162.65 41.8 Q 162 40 162 36 Q 162 33.7 162.2 31.45 Q 162.4 29.2 162.8 26.9 A 0.408 0.408 0 0 1 162.81 26.813 A 0.482 0.482 0 0 1 162.85 26.7 A 0.523 0.523 0 0 0 162.871 26.653 A 0.426 0.426 0 0 0 162.9 26.5 A 2.163 2.163 0 0 0 162.9 26.464 Q 162.887 25.73 162.372 25.555 A 1.156 1.156 0 0 0 162 25.5 A 1.747 1.747 0 0 0 160.79 25.973 A 2.664 2.664 0 0 0 160.35 26.5 A 9.405 9.405 0 0 0 160.077 26.946 Q 159.873 27.302 159.731 27.631 A 4.383 4.383 0 0 0 159.5 28.3 Q 159.4 29.3 159.25 31.05 A 38.869 38.869 0 0 0 159.199 31.712 A 43.722 43.722 0 0 0 159.1 34.7 Q 159.1 36.5 159.25 38.2 A 239.439 239.439 0 0 0 159.318 38.953 Q 159.423 40.111 159.5 40.8 Q 160.2 43.7 161.2 44.95 A 4.079 4.079 0 0 0 161.829 45.589 A 2.613 2.613 0 0 0 163.5 46.2 Q 164.9 46.2 166.45 44.95 A 19.168 19.168 0 0 0 167.821 43.728 Z M 163.041 19.339 A 1.826 1.826 0 0 0 163.5 19.4 A 2.499 2.499 0 0 0 163.668 19.394 Q 164.261 19.354 165.052 19.038 A 9.86 9.86 0 0 0 165.8 18.7 A 4.341 4.341 0 0 0 166.148 18.506 Q 167.2 17.853 167.2 16.9 A 0.995 0.995 0 0 0 167.193 16.778 Q 167.162 16.53 167.002 16.368 A 0.818 0.818 0 0 0 166.75 16.2 Q 166.3 16 165.8 16 A 2.584 2.584 0 0 0 165.713 16.002 Q 164.836 16.031 163.55 16.65 Q 163.07 16.881 162.761 17.169 A 1.629 1.629 0 0 0 162.2 18.4 Q 162.2 19 162.65 19.2 A 2.526 2.526 0 0 0 163.041 19.339 Z" id="6" vector-effect="non-scaling-stroke"/><path d="M 172.761 48.365 A 0.295 0.295 0 0 0 173 48.5 A 0.864 0.864 0 0 0 173.036 48.499 Q 173.483 48.481 173.607 47.992 A 1.597 1.597 0 0 0 173.65 47.7 Q 173.686 47.125 173.748 46.757 A 3.355 3.355 0 0 1 173.8 46.5 A 40.383 40.383 0 0 1 173.803 46.495 Q 174.665 45.279 175.746 44.011 A 48.802 48.802 0 0 1 178.05 41.5 A 57.419 57.419 0 0 1 178.388 41.159 Q 179.565 39.978 180.689 38.992 A 33.994 33.994 0 0 1 182.9 37.2 A 19.313 19.313 0 0 0 183.071 37.922 Q 183.399 39.209 184.05 41.2 A 18.57 18.57 0 0 0 184.273 41.841 A 16.241 16.241 0 0 0 186.4 45.85 Q 186.898 46.531 187.451 46.985 A 3.77 3.77 0 0 0 189.9 47.9 A 2.402 2.402 0 0 0 190.526 47.815 Q 190.909 47.712 191.306 47.484 A 5.13 5.13 0 0 0 192 47 Q 192.413 46.663 192.67 46.297 A 2.211 2.211 0 0 0 193.1 45 A 0.693 0.693 0 0 0 193.094 44.907 Q 193.077 44.777 193.005 44.729 A 0.183 0.183 0 0 0 192.9 44.7 A 0.253 0.253 0 0 0 192.886 44.7 Q 192.738 44.709 192.708 44.894 A 0.666 0.666 0 0 0 192.7 45 A 3.784 3.784 0 0 1 192.638 45.125 Q 192.089 46.189 191.033 46.534 A 3.633 3.633 0 0 1 189.9 46.7 Q 188.976 46.7 188.279 45.992 A 3.769 3.769 0 0 1 187.75 45.3 A 8.926 8.926 0 0 1 187.664 45.155 Q 186.874 43.798 186.4 41.9 Q 185.9 39.9 185.7 38 A 1313.923 1313.923 0 0 0 185.693 37.931 Q 185.548 36.554 185.456 35.713 A 218.392 218.392 0 0 0 185.4 35.2 A 17.129 17.129 0 0 1 187.948 33.717 A 22.27 22.27 0 0 1 191.15 32.5 Q 192.877 31.984 194.299 31.309 A 15.042 15.042 0 0 0 196.7 29.9 A 2.048 2.048 0 0 0 197.022 29.578 A 2.182 2.182 0 0 0 197.4 28.85 A 4.879 4.879 0 0 0 197.506 28.447 A 4.001 4.001 0 0 0 197.6 27.6 Q 197.6 27.413 197.561 27.186 A 3.947 3.947 0 0 0 197.5 26.9 Q 197.424 26.597 197.119 26.524 A 0.938 0.938 0 0 0 196.9 26.5 A 7.153 7.153 0 0 0 196.051 26.554 Q 194.94 26.687 193.55 27.15 A 233.889 233.889 0 0 0 192.385 27.542 Q 191.829 27.73 191.327 27.904 A 124.299 124.299 0 0 0 190.2 28.3 A 4.25 4.25 0 0 1 189.772 28.446 A 3.262 3.262 0 0 1 189.25 28.55 Q 188.8 28.6 188.3 28.8 Q 187.8 28.8 187.8 29.2 A 0.25 0.25 0 0 0 187.86 29.372 Q 187.941 29.463 188.13 29.489 A 1.246 1.246 0 0 0 188.3 29.5 A 1.628 1.628 0 0 0 188.358 29.499 Q 188.872 29.481 190.1 29.15 A 43.518 43.518 0 0 0 190.181 29.128 A 47.259 47.259 0 0 0 192.75 28.35 Q 193.784 28.006 194.319 27.866 A 5.156 5.156 0 0 1 194.6 27.8 Q 189.8 30.6 185.3 34.1 Q 185.3 33.3 184.5 32.55 Q 183.963 32.046 183.515 31.791 A 2.327 2.327 0 0 0 183.1 31.6 A 4.984 4.984 0 0 0 182.729 31.457 Q 182.504 31.382 182.303 31.342 A 2.106 2.106 0 0 0 181.9 31.3 Q 181.4 31.3 181.4 31.7 A 1.484 1.484 0 0 0 181.404 31.806 Q 181.419 32.019 181.5 32.1 A 8.457 8.457 0 0 1 181.697 32.608 Q 181.898 33.177 182.1 33.95 A 80.013 80.013 0 0 1 182.182 34.269 Q 182.428 35.227 182.6 36 Q 180.3 38 178.2 39.75 A 25.781 25.781 0 0 0 176.382 41.425 A 32.697 32.697 0 0 0 174.1 44 Q 174.634 41.388 175.715 38.37 A 64.978 64.978 0 0 1 177.45 34.05 Q 179.9 28.5 183.2 22.75 A 130.47 130.47 0 0 1 184.448 20.622 A 115.606 115.606 0 0 1 190.1 12.05 A 109.644 109.644 0 0 1 191.106 10.688 Q 192.604 8.695 194.03 6.996 A 60.089 60.089 0 0 1 196.9 3.8 A 5.011 5.011 0 0 0 196.976 3.722 A 3.817 3.817 0 0 0 198.1 1 A 2.056 2.056 0 0 0 198.075 0.687 A 2.756 2.756 0 0 0 198 0.35 A 0.427 0.427 0 0 0 197.809 0.093 Q 197.726 0.042 197.612 0.019 A 1.077 1.077 0 0 0 197.4 0 A 0.606 0.606 0 0 0 197.277 0.013 Q 197.198 0.029 197.112 0.066 A 1.34 1.34 0 0 0 196.95 0.15 A 9.428 9.428 0 0 1 196.881 0.191 Q 196.672 0.314 196.5 0.4 Q 194.2 1.9 192.4 4.05 Q 190.6 6.2 188.4 7.9 Q 187.9 8.3 187.35 8.65 A 7.664 7.664 0 0 1 186.84 8.947 A 9.683 9.683 0 0 1 186.1 9.3 A 0.726 0.726 0 0 0 185.977 9.342 Q 185.794 9.425 185.732 9.599 A 0.597 0.597 0 0 0 185.7 9.8 A 0.253 0.253 0 0 0 185.7 9.815 Q 185.709 9.962 185.894 9.992 A 0.666 0.666 0 0 0 186 10 A 0.788 0.788 0 0 0 186.08 9.996 Q 186.494 9.953 187.4 9.5 A 22.536 22.536 0 0 0 187.856 9.266 Q 188.498 8.926 188.8 8.7 Q 187 12 184.25 16.85 A 220.274 220.274 0 0 0 182.878 19.306 A 245.575 245.575 0 0 0 178.8 27.05 A 115.761 115.761 0 0 0 176.895 31.006 A 95.868 95.868 0 0 0 174.25 37.35 A 38.668 38.668 0 0 0 173.447 39.718 Q 172.944 41.388 172.682 42.882 A 17.555 17.555 0 0 0 172.4 45.9 Q 172.4 46.144 172.466 46.949 A 82.508 82.508 0 0 0 172.5 47.35 Q 172.566 48.106 172.761 48.365 Z" id="7" vector-effect="non-scaling-stroke"/><path d="M 209.521 43.728 A 24.484 24.484 0 0 0 211.2 41.9 A 152.692 152.692 0 0 0 212.038 40.906 A 135.34 135.34 0 0 0 214.4 38 Q 215.244 36.931 215.929 35.957 A 32.04 32.04 0 0 0 216.9 34.5 A 3.273 3.273 0 0 0 216.988 34.309 Q 217.33 33.5 216.7 33.5 A 0.53 0.53 0 0 0 216.389 33.595 Q 216.213 33.718 216.1 34 A 53.275 53.275 0 0 1 215.455 35.034 Q 214.419 36.652 213.5 37.8 A 27.112 27.112 0 0 1 213.047 38.352 A 23.883 23.883 0 0 1 211 40.5 A 38.456 38.456 0 0 1 210.313 41.126 Q 209.755 41.623 209.242 42.035 A 19.346 19.346 0 0 1 208.3 42.75 A 8.187 8.187 0 0 1 208.253 42.783 Q 207.53 43.288 206.917 43.481 A 2.392 2.392 0 0 1 206.2 43.6 Q 205.272 43.6 204.673 42.523 A 4.941 4.941 0 0 1 204.35 41.8 Q 203.7 40 203.7 36 Q 203.7 33.7 203.9 31.45 Q 204.1 29.2 204.5 26.9 A 0.408 0.408 0 0 1 204.51 26.813 A 0.482 0.482 0 0 1 204.55 26.7 A 0.523 0.523 0 0 0 204.571 26.653 A 0.426 0.426 0 0 0 204.6 26.5 A 2.163 2.163 0 0 0 204.6 26.464 Q 204.587 25.73 204.072 25.555 A 1.156 1.156 0 0 0 203.7 25.5 A 1.747 1.747 0 0 0 202.49 25.973 A 2.664 2.664 0 0 0 202.05 26.5 A 9.405 9.405 0 0 0 201.777 26.946 Q 201.573 27.302 201.431 27.631 A 4.383 4.383 0 0 0 201.2 28.3 Q 201.1 29.3 200.95 31.05 A 38.869 38.869 0 0 0 200.899 31.712 A 43.722 43.722 0 0 0 200.8 34.7 Q 200.8 36.5 200.95 38.2 A 239.439 239.439 0 0 0 201.018 38.953 Q 201.123 40.111 201.2 40.8 Q 201.9 43.7 202.9 44.95 A 4.079 4.079 0 0 0 203.529 45.589 A 2.613 2.613 0 0 0 205.2 46.2 Q 206.6 46.2 208.15 44.95 A 19.168 19.168 0 0 0 209.521 43.728 Z M 204.741 19.339 A 1.826 1.826 0 0 0 205.2 19.4 A 2.499 2.499 0 0 0 205.368 19.394 Q 205.961 19.354 206.752 19.038 A 9.86 9.86 0 0 0 207.5 18.7 A 4.341 4.341 0 0 0 207.848 18.506 Q 208.9 17.853 208.9 16.9 A 0.995 0.995 0 0 0 208.893 16.778 Q 208.862 16.53 208.702 16.368 A 0.818 0.818 0 0 0 208.45 16.2 Q 208 16 207.5 16 A 2.584 2.584 0 0 0 207.413 16.002 Q 206.536 16.031 205.25 16.65 Q 204.77 16.881 204.461 17.169 A 1.629 1.629 0 0 0 203.9 18.4 Q 203.9 19 204.35 19.2 A 2.526 2.526 0 0 0 204.741 19.339 Z" id="8" vector-effect="non-scaling-stroke"/></g></svg>